# xmcd CD database file
#
# Track frame offsets:
#	150
#	16782
#	32795
#	51317
#	67800
#	86044
#	102172
#	124610
#	139927
#	157852
#
# Disc length: 2364 seconds
#
# Revision: 0
# Processed by: cddbd v1.4PL0 Copyright (c) Steve Scherf et al.
# Submitted via: CDex 1.40Release
#
DISCID=78093a0a
DTITLE=Michael Armstrong - What You Make It
DYEAR=2002
DGENRE=Country
TTITLE0=Little Things
TTITLE1=She Started It
TTITLE2=Say Yes
TTITLE3=Ooh La La
TTITLE4=Favorite Time of the Day
TTITLE5=I Should Have Kissed You
TTITLE6=Always Be My Baby
TTITLE7=Here Comes the Rain
TTITLE8=First Time
TTITLE9=My Light is You
EXTD=YEAR: 2002 ID3G: 2
EXTT0=
EXTT1=
EXTT2=
EXTT3=
EXTT4=
EXTT5=
EXTT6=
EXTT7=
EXTT8=
EXTT9=
PLAYORDER=
